<svg width="949pt" height="30pt" viewBox="0 0 949 30" xmlns="http://www.w3.org/2000/svg"><g id="fontsvg1689642197595" stroke-linecap="round" fill-rule="evenodd" fill="#000000"><path d="M 653.13 15 L 661.77 0 L 674.76 22.5 L 670.44 30 L 661.77 15 L 657.45 22.5 L 661.77 30 L 653.13 30 L 644.46 15 L 640.14 22.5 L 644.46 30 L 635.79 30 L 631.47 22.5 L 644.46 0 L 653.13 15 Z M 826.5 15 L 835.14 0 L 848.13 22.5 L 843.81 30 L 835.14 15 L 830.82 22.5 L 835.14 30 L 826.5 30 L 817.83 15 L 813.51 22.5 L 817.83 30 L 809.16 30 L 804.84 22.5 L 817.83 0 L 826.5 15 Z M 137.61 30 L 128.94 15 L 137.61 15 L 141.93 7.5 L 133.26 7.5 L 124.62 22.5 L 128.94 30 L 120.27 30 L 115.95 22.5 L 128.94 0 L 146.25 0 L 150.6 7.5 L 141.93 22.5 L 146.25 30 L 137.61 30 Z M 167.91 30 L 159.24 15 L 167.91 15 L 172.23 7.5 L 163.56 7.5 L 154.92 22.5 L 159.24 30 L 150.57 30 L 146.25 22.5 L 159.24 0 L 176.55 0 L 180.9 7.5 L 172.23 22.5 L 176.55 30 L 167.91 30 Z M 366.36 30 L 357.69 15 L 366.36 15 L 370.68 7.5 L 362.01 7.5 L 353.37 22.5 L 357.69 30 L 349.02 30 L 344.7 22.5 L 357.69 0 L 375 0 L 379.35 7.5 L 370.68 22.5 L 375 30 L 366.36 30 Z M 486.63 30 L 477.96 15 L 486.63 15 L 490.95 7.5 L 482.28 7.5 L 473.64 22.5 L 477.96 30 L 469.29 30 L 464.97 22.5 L 477.96 0 L 495.27 0 L 499.62 7.5 L 490.95 22.5 L 495.27 30 L 486.63 30 Z M 796.2 30 L 787.53 15 L 796.2 15 L 800.52 7.5 L 791.85 7.5 L 783.21 22.5 L 787.53 30 L 778.86 30 L 774.54 22.5 L 787.53 0 L 804.84 0 L 809.19 7.5 L 800.52 22.5 L 804.84 30 L 796.2 30 Z M 17.31 7.5 L 4.32 30 L 0 22.5 L 12.99 0 L 30.3 0 L 34.65 7.5 L 21.66 30 L 12.99 30 L 17.31 22.5 L 12.99 15 L 21.66 15 L 25.98 7.5 L 17.31 7.5 Z M 193.86 7.5 L 180.87 30 L 176.55 22.5 L 189.54 0 L 206.85 0 L 211.2 7.5 L 198.21 30 L 189.54 30 L 193.86 22.5 L 189.54 15 L 198.21 15 L 202.53 7.5 L 193.86 7.5 Z M 253.8 22.5 L 258.12 30 L 271.11 7.5 L 279.78 7.5 L 275.46 15 L 266.79 15 L 271.11 22.5 L 266.79 30 L 275.46 30 L 288.45 7.5 L 284.1 0 L 266.79 0 L 253.8 22.5 Z M 392.31 7.5 L 379.32 30 L 375 22.5 L 387.99 0 L 405.3 0 L 409.65 7.5 L 396.66 30 L 387.99 30 L 392.31 22.5 L 387.99 15 L 396.66 15 L 400.98 7.5 L 392.31 7.5 Z M 909.93 7.5 L 896.94 30 L 892.62 22.5 L 905.61 0 L 922.92 0 L 927.27 7.5 L 914.28 30 L 905.61 30 L 909.93 22.5 L 905.61 15 L 914.28 15 L 918.6 7.5 L 909.93 7.5 Z M 94.32 22.5 L 102.96 22.5 L 107.31 30 L 89.97 30 L 85.65 22.5 L 98.64 0 L 115.95 0 L 120.3 7.5 L 102.96 7.5 L 100.8 11.25 L 109.47 11.25 L 105.12 18.75 L 96.48 18.75 L 94.32 22.5 Z M 516.93 22.5 L 525.57 22.5 L 529.92 30 L 512.58 30 L 508.26 22.5 L 521.25 0 L 538.56 0 L 542.91 7.5 L 525.57 7.5 L 523.41 11.25 L 532.08 11.25 L 527.73 18.75 L 519.09 18.75 L 516.93 22.5 Z M 752.91 22.5 L 761.55 22.5 L 765.9 30 L 748.56 30 L 744.24 22.5 L 757.23 0 L 774.54 0 L 778.89 7.5 L 761.55 7.5 L 759.39 11.25 L 768.06 11.25 L 763.71 18.75 L 755.07 18.75 L 752.91 22.5 Z M 892.62 0 L 896.97 7.5 L 883.98 30 L 875.31 15 L 870.99 22.5 L 875.31 30 L 866.64 30 L 862.32 22.5 L 875.31 0 L 883.98 15 L 892.62 0 Z M 564.66 0 L 565.83 0 L 561.51 7.5 L 552.84 7.5 L 561.51 22.5 L 557.16 30 L 539.85 30 L 544.17 22.5 L 552.84 22.5 L 544.17 7.5 L 548.52 0 L 564.66 0 Z M 63.99 7.5 L 59.67 0 L 85.65 0 L 89.97 7.5 L 81.33 7.5 L 72.69 22.47 L 76.98 30 L 68.34 30 L 63.99 22.5 L 72.66 7.5 L 63.99 7.5 Z M 413.01 7.5 L 408.69 0 L 434.67 0 L 438.99 7.5 L 430.35 7.5 L 421.71 22.47 L 426 30 L 417.36 30 L 413.01 22.5 L 421.68 7.5 L 413.01 7.5 Z M 609.81 7.5 L 605.49 0 L 631.47 0 L 635.79 7.5 L 627.15 7.5 L 618.51 22.47 L 622.8 30 L 614.16 30 L 609.81 22.5 L 618.48 7.5 L 609.81 7.5 Z M 722.58 7.5 L 718.26 0 L 744.24 0 L 748.56 7.5 L 739.92 7.5 L 731.28 22.47 L 735.57 30 L 726.93 30 L 722.58 22.5 L 731.25 7.5 L 722.58 7.5 Z M 30.3 22.5 L 43.29 0 L 51.96 0 L 38.97 22.5 L 56.28 22.5 L 51.96 30 L 34.62 30 L 30.3 22.5 Z M 227.82 22.5 L 240.81 0 L 249.48 0 L 236.49 22.5 L 253.8 22.5 L 249.48 30 L 232.14 30 L 227.82 22.5 Z M 922.92 22.5 L 935.91 0 L 944.58 0 L 931.59 22.5 L 948.9 22.5 L 944.58 30 L 927.24 30 L 922.92 22.5 Z M 305.76 15 L 310.08 22.5 L 305.76 30 L 288.42 30 L 284.1 22.5 L 297.09 0 L 314.4 0 L 318.75 7.5 L 314.4 15 L 305.76 15 Z M 327.39 0 L 344.7 0 L 349.05 7.5 L 336.06 30 L 318.72 30 L 314.4 22.5 L 327.39 0 Z M 447.66 0 L 464.97 0 L 469.32 7.5 L 456.33 30 L 438.99 30 L 434.67 22.5 L 447.66 0 Z M 686.76 15 L 678.09 0 L 686.76 0 L 695.4 15 L 686.76 30 L 678.09 30 L 686.76 15 Z M 594.96 0 L 603.6 0 L 594.96 15 L 603.6 30 L 594.96 30 L 586.29 15 L 594.96 0 Z M 508.26 0 L 512.58 7.5 L 503.94 22.5 L 508.26 30 L 499.59 30 L 495.27 22.5 L 508.26 0 Z M 862.32 0 L 866.64 7.5 L 858 22.5 L 862.32 30 L 853.65 30 L 849.33 22.5 L 862.32 0 Z M 310.08 7.5 L 305.76 15 L 297.09 15 L 301.41 22.5 L 292.77 22.5 L 301.41 7.5 L 310.08 7.5 Z M 323.07 22.5 L 331.71 22.5 L 340.38 7.5 L 331.71 7.5 L 323.07 22.5 Z M 443.34 22.5 L 451.98 22.5 L 460.65 7.5 L 451.98 7.5 L 443.34 22.5 Z" vector-effect="non-scaling-stroke"/></g></svg>